<svg width="40" height="40" viewBox="0 0 40 40" xmlns="http://www.w3.org/2000/svg">
  <defs>
    <linearGradient id="metalTL" x1="0%" y1="0%" x2="100%" y2="100%">
      <stop offset="0%" style="stop-color:#5a6a72"/>
      <stop offset="30%" style="stop-color:#3a4a52"/>
      <stop offset="50%" style="stop-color:#4a5a62"/>
      <stop offset="70%" style="stop-color:#2a3a42"/>
      <stop offset="100%" style="stop-color:#1a2a32"/>
    </linearGradient>
    <linearGradient id="highlightTL" x1="0%" y1="0%" x2="100%" y2="100%">
      <stop offset="0%" style="stop-color:#7a8a92"/>
      <stop offset="100%" style="stop-color:#4a5a62"/>
    </linearGradient>
  </defs>
  <!-- Outer bracket -->
  <path d="M0,40 L0,8 L4,4 L8,4 L8,0 L40,0 L40,4 L12,4 L8,8 L8,12 L4,12 L4,40 Z" fill="url(#metalTL)"/>
  <!-- Inner highlight -->
  <path d="M2,38 L2,10 L6,6 L10,6 L10,2 L38,2 L38,4 L12,4 L8,8 L8,12 L4,12 L4,38 Z" fill="url(#highlightTL)" opacity="0.3"/>
  <!-- Screws/rivets -->
  <circle cx="6" cy="6" r="2" fill="#2a3a42"/>
  <circle cx="6" cy="6" r="1" fill="#4a5a62"/>
  <!-- Edge highlight -->
  <path d="M4,12 L4,40" stroke="#6a7a82" stroke-width="0.5" opacity="0.5"/>
  <path d="M12,4 L40,4" stroke="#6a7a82" stroke-width="0.5" opacity="0.5"/>
</svg>
