<svg width="40" height="40" viewBox="0 0 40 40" xmlns="http://www.w3.org/2000/svg">
  <defs>
    <linearGradient id="metalTR" x1="100%" y1="0%" x2="0%" y2="100%">
      <stop offset="0%" style="stop-color:#5a6a72"/>
      <stop offset="30%" style="stop-color:#3a4a52"/>
      <stop offset="50%" style="stop-color:#4a5a62"/>
      <stop offset="70%" style="stop-color:#2a3a42"/>
      <stop offset="100%" style="stop-color:#1a2a32"/>
    </linearGradient>
    <linearGradient id="highlightTR" x1="100%" y1="0%" x2="0%" y2="100%">
      <stop offset="0%" style="stop-color:#7a8a92"/>
      <stop offset="100%" style="stop-color:#4a5a62"/>
    </linearGradient>
  </defs>
  <!-- Outer bracket -->
  <path d="M40,40 L40,8 L36,4 L32,4 L32,0 L0,0 L0,4 L28,4 L32,8 L32,12 L36,12 L36,40 Z" fill="url(#metalTR)"/>
  <!-- Inner highlight -->
  <path d="M38,38 L38,10 L34,6 L30,6 L30,2 L2,2 L2,4 L28,4 L32,8 L32,12 L36,12 L36,38 Z" fill="url(#highlightTR)" opacity="0.3"/>
  <!-- Screws/rivets -->
  <circle cx="34" cy="6" r="2" fill="#2a3a42"/>
  <circle cx="34" cy="6" r="1" fill="#4a5a62"/>
  <!-- Edge highlight -->
  <path d="M36,12 L36,40" stroke="#6a7a82" stroke-width="0.5" opacity="0.5"/>
  <path d="M28,4 L0,4" stroke="#6a7a82" stroke-width="0.5" opacity="0.5"/>
</svg>
